<?xml version="1.0" encoding="UTF-8" standalone="no"?>
<!DOCTYPE svg PUBLIC "-//W3C//DTD SVG 1.1//EN"
 "http://www.w3.org/Graphics/SVG/1.1/DTD/svg11.dtd">
<!-- Generated by graphviz version 3.0.0 (20220226.1711)
 -->
<!-- Title: dependencies Pages: 1 -->
<svg width="258pt" height="247pt"
 viewBox="0.00 0.00 258.00 246.80" xmlns="http://www.w3.org/2000/svg" xmlns:xlink="http://www.w3.org/1999/xlink">
<g id="graph0" class="graph" transform="scale(1 1) rotate(0) translate(4 242.8)">
<title>dependencies</title>
<polygon fill="white" stroke="transparent" points="-4,4 -4,-242.8 254,-242.8 254,4 -4,4"/>
<text text-anchor="middle" x="125" y="-8.2" font-family="sans-serif" font-size="14.00">dependencies</text>
<g id="clust1" class="cluster">
<title>cluster_StripePaymentsModule</title>
<polygon fill="none" stroke="black" stroke-dasharray="1,5" points="8,-32.8 8,-230.8 242,-230.8 242,-32.8 8,-32.8"/>
</g>
<g id="clust6" class="cluster">
<title>cluster_StripePaymentsModule_providers</title>
<polygon fill="none" stroke="black" points="16,-40.8 16,-92.8 234,-92.8 234,-40.8 16,-40.8"/>
</g>
<g id="clust4" class="cluster">
<title>cluster_StripePaymentsModule_exports</title>
<polygon fill="none" stroke="black" points="42,-170.8 42,-222.8 208,-222.8 208,-170.8 42,-170.8"/>
</g>
<!-- StripePaymentsService  -->
<g id="node1" class="node">
<title>StripePaymentsService </title>
<polygon fill="#fb8072" stroke="black" points="199.86,-214.8 50.14,-214.8 50.14,-178.8 199.86,-178.8 199.86,-214.8"/>
<text text-anchor="middle" x="125" y="-192.6" font-family="Times,serif" font-size="14.00">StripePaymentsService </text>
</g>
<!-- StripePaymentsModule -->
<g id="node2" class="node">
<title>StripePaymentsModule</title>
<polygon fill="#8dd3c7" stroke="black" points="198.94,-149.8 195.94,-153.8 174.94,-153.8 171.94,-149.8 51.06,-149.8 51.06,-113.8 198.94,-113.8 198.94,-149.8"/>
<text text-anchor="middle" x="125" y="-127.6" font-family="Times,serif" font-size="14.00">StripePaymentsModule</text>
</g>
<!-- StripePaymentsModule&#45;&gt;StripePaymentsService  -->
<g id="edge1" class="edge">
<title>StripePaymentsModule&#45;&gt;StripePaymentsService </title>
<path fill="none" stroke="black" stroke-dasharray="5,2" d="M125,-149.91C125,-149.91 125,-168.79 125,-168.79"/>
<polygon fill="black" stroke="black" points="121.5,-168.79 125,-178.79 128.5,-168.79 121.5,-168.79"/>
</g>
<!-- StripePaymentsService -->
<g id="node3" class="node">
<title>StripePaymentsService</title>
<ellipse fill="#fdb462" stroke="black" cx="125" cy="-66.8" rx="100.73" ry="18"/>
<text text-anchor="middle" x="125" y="-62.6" font-family="Times,serif" font-size="14.00">StripePaymentsService</text>
</g>
<!-- StripePaymentsService&#45;&gt;StripePaymentsModule -->
<g id="edge2" class="edge">
<title>StripePaymentsService&#45;&gt;StripePaymentsModule</title>
<path fill="none" stroke="black" d="M125,-84.91C125,-84.91 125,-103.79 125,-103.79"/>
<polygon fill="black" stroke="black" points="121.5,-103.79 125,-113.79 128.5,-103.79 121.5,-103.79"/>
</g>
</g>
</svg>
