<svg xmlns="http://www.w3.org/2000/svg" xmlns:xlink="http://www.w3.org/1999/xlink" width="344" height="247pt" viewBox="0 0 258 246.8"><g id="graph0" class="graph" transform="scale(1 1) rotate(0) translate(4 242.8)"><title>dependencies</title><polygon fill="#fff" stroke="transparent" points="-4 4 -4 -242.8 254 -242.8 254 4 -4 4"/><text x="125" y="-8.2" font-family="sans-serif" font-size="14" text-anchor="middle">dependencies</text><g id="clust1" class="cluster"><title>cluster_StripePaymentsModule</title><polygon fill="none" stroke="#000" stroke-dasharray="1 5" points="8 -32.8 8 -230.8 242 -230.8 242 -32.8 8 -32.8"/></g><g id="clust6" class="cluster"><title>cluster_StripePaymentsModule_providers</title><polygon fill="none" stroke="#000" points="16 -40.8 16 -92.8 234 -92.8 234 -40.8 16 -40.8"/></g><g id="clust4" class="cluster"><title>cluster_StripePaymentsModule_exports</title><polygon fill="none" stroke="#000" points="42 -170.8 42 -222.8 208 -222.8 208 -170.8 42 -170.8"/></g><g id="node1" class="node"><title>StripePaymentsService</title><polygon fill="#fb8072" stroke="#000" points="199.86 -214.8 50.14 -214.8 50.14 -178.8 199.86 -178.8 199.86 -214.8"/><text x="125" y="-192.6" font-family="Times,serif" font-size="14" text-anchor="middle">StripePaymentsService</text></g><g id="node2" class="node"><title>StripePaymentsModule</title><polygon fill="#8dd3c7" stroke="#000" points="198.94 -149.8 195.94 -153.8 174.94 -153.8 171.94 -149.8 51.06 -149.8 51.06 -113.8 198.94 -113.8 198.94 -149.8"/><text x="125" y="-127.6" font-family="Times,serif" font-size="14" text-anchor="middle">StripePaymentsModule</text></g><g id="edge1" class="edge"><title>StripePaymentsModule-&gt;StripePaymentsService</title><path fill="none" stroke="#000" stroke-dasharray="5 2" d="M125,-149.91C125,-149.91 125,-168.79 125,-168.79"/><polygon fill="#000" stroke="#000" points="121.5 -168.79 125 -178.79 128.5 -168.79 121.5 -168.79"/></g><g id="node3" class="node"><title>StripePaymentsService</title><ellipse cx="125" cy="-66.8" fill="#fdb462" stroke="#000" rx="100.73" ry="18"/><text x="125" y="-62.6" font-family="Times,serif" font-size="14" text-anchor="middle">StripePaymentsService</text></g><g id="edge2" class="edge"><title>StripePaymentsService-&gt;StripePaymentsModule</title><path fill="none" stroke="#000" d="M125,-84.91C125,-84.91 125,-103.79 125,-103.79"/><polygon fill="#000" stroke="#000" points="121.5 -103.79 125 -113.79 128.5 -103.79 121.5 -103.79"/></g></g></svg>