<?xml version="1.0" encoding="UTF-8" standalone="no"?>
<!DOCTYPE svg PUBLIC "-//W3C//DTD SVG 1.1//EN"
 "http://www.w3.org/Graphics/SVG/1.1/DTD/svg11.dtd">
<!-- Generated by graphviz version 3.0.0 (20220226.1711)
 -->
<!-- Title: dependencies Pages: 1 -->
<svg width="502pt" height="247pt"
 viewBox="0.00 0.00 502.00 246.80" xmlns="http://www.w3.org/2000/svg" xmlns:xlink="http://www.w3.org/1999/xlink">
<g id="graph0" class="graph" transform="scale(1 1) rotate(0) translate(4 242.8)">
<title>dependencies</title>
<polygon fill="white" stroke="transparent" points="-4,4 -4,-242.8 498,-242.8 498,4 -4,4"/>
<text text-anchor="middle" x="247" y="-8.2" font-family="sans-serif" font-size="14.00">dependencies</text>
<g id="clust1" class="cluster">
<title>cluster_EmailVerificationModule</title>
<polygon fill="none" stroke="black" stroke-dasharray="1,5" points="8,-32.8 8,-230.8 486,-230.8 486,-32.8 8,-32.8"/>
</g>
<g id="clust4" class="cluster">
<title>cluster_EmailVerificationModule_exports</title>
<polygon fill="none" stroke="black" points="91,-170.8 91,-222.8 269,-222.8 269,-170.8 91,-170.8"/>
</g>
<g id="clust6" class="cluster">
<title>cluster_EmailVerificationModule_providers</title>
<polygon fill="none" stroke="black" points="242,-40.8 242,-92.8 478,-92.8 478,-40.8 242,-40.8"/>
</g>
<g id="clust3" class="cluster">
<title>cluster_EmailVerificationModule_imports</title>
<polygon fill="none" stroke="black" points="16,-40.8 16,-92.8 234,-92.8 234,-40.8 16,-40.8"/>
</g>
<!-- EmailModule -->
<g id="node1" class="node">
<title>EmailModule</title>
<polygon fill="#8dd3c7" stroke="black" points="226.49,-84.8 223.49,-88.8 202.49,-88.8 199.49,-84.8 133.51,-84.8 133.51,-48.8 226.49,-48.8 226.49,-84.8"/>
<text text-anchor="middle" x="180" y="-62.6" font-family="Times,serif" font-size="14.00">EmailModule</text>
</g>
<!-- EmailVerificationModule -->
<g id="node3" class="node">
<title>EmailVerificationModule</title>
<polygon fill="#8dd3c7" stroke="black" points="260.12,-149.8 257.12,-153.8 236.12,-153.8 233.12,-149.8 99.88,-149.8 99.88,-113.8 260.12,-113.8 260.12,-149.8"/>
<text text-anchor="middle" x="180" y="-127.6" font-family="Times,serif" font-size="14.00">EmailVerificationModule</text>
</g>
<!-- EmailModule&#45;&gt;EmailVerificationModule -->
<g id="edge1" class="edge">
<title>EmailModule&#45;&gt;EmailVerificationModule</title>
<path fill="none" stroke="black" d="M180,-84.91C180,-84.91 180,-103.79 180,-103.79"/>
<polygon fill="black" stroke="black" points="176.5,-103.79 180,-113.79 183.5,-103.79 176.5,-103.79"/>
</g>
<!-- UsersModule -->
<g id="node2" class="node">
<title>UsersModule</title>
<polygon fill="#8dd3c7" stroke="black" points="115.94,-84.8 112.94,-88.8 91.94,-88.8 88.94,-84.8 24.06,-84.8 24.06,-48.8 115.94,-48.8 115.94,-84.8"/>
<text text-anchor="middle" x="70" y="-62.6" font-family="Times,serif" font-size="14.00">UsersModule</text>
</g>
<!-- UsersModule&#45;&gt;EmailVerificationModule -->
<g id="edge2" class="edge">
<title>UsersModule&#45;&gt;EmailVerificationModule</title>
<path fill="none" stroke="black" d="M107.7,-84.91C107.7,-84.91 107.7,-103.79 107.7,-103.79"/>
<polygon fill="black" stroke="black" points="104.2,-103.79 107.7,-113.79 111.2,-103.79 104.2,-103.79"/>
</g>
<!-- EmailVerificationService  -->
<g id="node4" class="node">
<title>EmailVerificationService </title>
<polygon fill="#fb8072" stroke="black" points="261.05,-214.8 98.95,-214.8 98.95,-178.8 261.05,-178.8 261.05,-214.8"/>
<text text-anchor="middle" x="180" y="-192.6" font-family="Times,serif" font-size="14.00">EmailVerificationService </text>
</g>
<!-- EmailVerificationModule&#45;&gt;EmailVerificationService  -->
<g id="edge3" class="edge">
<title>EmailVerificationModule&#45;&gt;EmailVerificationService </title>
<path fill="none" stroke="black" stroke-dasharray="5,2" d="M180,-149.91C180,-149.91 180,-168.79 180,-168.79"/>
<polygon fill="black" stroke="black" points="176.5,-168.79 180,-178.79 183.5,-168.79 176.5,-168.79"/>
</g>
<!-- EmailVerificationService -->
<g id="node5" class="node">
<title>EmailVerificationService</title>
<ellipse fill="#fdb462" stroke="black" cx="360" cy="-66.8" rx="109.92" ry="18"/>
<text text-anchor="middle" x="360" y="-62.6" font-family="Times,serif" font-size="14.00">EmailVerificationService</text>
</g>
<!-- EmailVerificationService&#45;&gt;EmailVerificationModule -->
<g id="edge4" class="edge">
<title>EmailVerificationService&#45;&gt;EmailVerificationModule</title>
<path fill="none" stroke="black" d="M255.3,-72.34C255.3,-72.34 255.3,-103.55 255.3,-103.55"/>
<polygon fill="black" stroke="black" points="251.8,-103.55 255.3,-113.55 258.8,-103.55 251.8,-103.55"/>
</g>
</g>
</svg>
