<?xml version="1.0" encoding="UTF-8" standalone="no"?>
<!DOCTYPE svg PUBLIC "-//W3C//DTD SVG 1.1//EN"
 "http://www.w3.org/Graphics/SVG/1.1/DTD/svg11.dtd">
<!-- Generated by graphviz version 3.0.0 (20220226.1711)
 -->
<!-- Title: dependencies Pages: 1 -->
<svg width="763pt" height="174pt"
 viewBox="0.00 0.00 763.00 173.80" xmlns="http://www.w3.org/2000/svg" xmlns:xlink="http://www.w3.org/1999/xlink">
<g id="graph0" class="graph" transform="scale(1 1) rotate(0) translate(4 169.8)">
<title>dependencies</title>
<polygon fill="white" stroke="transparent" points="-4,4 -4,-169.8 759,-169.8 759,4 -4,4"/>
<text text-anchor="middle" x="377.5" y="-8.2" font-family="sans-serif" font-size="14.00">dependencies</text>
<g id="clust1" class="cluster">
<title>cluster_AppModule</title>
<polygon fill="none" stroke="black" stroke-dasharray="1,5" points="8,-32.8 8,-157.8 747,-157.8 747,-32.8 8,-32.8"/>
</g>
<g id="clust3" class="cluster">
<title>cluster_AppModule_imports</title>
<polygon fill="none" stroke="black" points="16,-40.8 16,-92.8 739,-92.8 739,-40.8 16,-40.8"/>
</g>
<!-- AuthenticationModule -->
<g id="node1" class="node">
<title>AuthenticationModule</title>
<polygon fill="#8dd3c7" stroke="black" points="731.25,-84.8 728.25,-88.8 707.25,-88.8 704.25,-84.8 588.75,-84.8 588.75,-48.8 731.25,-48.8 731.25,-84.8"/>
<text text-anchor="middle" x="660" y="-62.6" font-family="Times,serif" font-size="14.00">AuthenticationModule</text>
</g>
<!-- AppModule -->
<g id="node6" class="node">
<title>AppModule</title>
<polygon fill="#8dd3c7" stroke="black" points="420.66,-149.8 417.66,-153.8 396.66,-153.8 393.66,-149.8 337.34,-149.8 337.34,-113.8 420.66,-113.8 420.66,-149.8"/>
<text text-anchor="middle" x="379" y="-127.6" font-family="Times,serif" font-size="14.00">AppModule</text>
</g>
<!-- AuthenticationModule&#45;&gt;AppModule -->
<g id="edge1" class="edge">
<title>AuthenticationModule&#45;&gt;AppModule</title>
<path fill="none" stroke="black" d="M660,-85.08C660,-106.12 660,-137.8 660,-137.8 660,-137.8 430.77,-137.8 430.77,-137.8"/>
<polygon fill="black" stroke="black" points="430.77,-134.3 420.77,-137.8 430.77,-141.3 430.77,-134.3"/>
</g>
<!-- EmailModule -->
<g id="node2" class="node">
<title>EmailModule</title>
<polygon fill="#8dd3c7" stroke="black" points="570.49,-84.8 567.49,-88.8 546.49,-88.8 543.49,-84.8 477.51,-84.8 477.51,-48.8 570.49,-48.8 570.49,-84.8"/>
<text text-anchor="middle" x="524" y="-62.6" font-family="Times,serif" font-size="14.00">EmailModule</text>
</g>
<!-- EmailModule&#45;&gt;AppModule -->
<g id="edge2" class="edge">
<title>EmailModule&#45;&gt;AppModule</title>
<path fill="none" stroke="black" d="M524,-84.82C524,-102.17 524,-125.8 524,-125.8 524,-125.8 430.94,-125.8 430.94,-125.8"/>
<polygon fill="black" stroke="black" points="430.94,-122.3 420.94,-125.8 430.94,-129.3 430.94,-122.3"/>
</g>
<!-- EmailVerificationModule -->
<g id="node3" class="node">
<title>EmailVerificationModule</title>
<polygon fill="#8dd3c7" stroke="black" points="459.12,-84.8 456.12,-88.8 435.12,-88.8 432.12,-84.8 298.88,-84.8 298.88,-48.8 459.12,-48.8 459.12,-84.8"/>
<text text-anchor="middle" x="379" y="-62.6" font-family="Times,serif" font-size="14.00">EmailVerificationModule</text>
</g>
<!-- EmailVerificationModule&#45;&gt;AppModule -->
<g id="edge3" class="edge">
<title>EmailVerificationModule&#45;&gt;AppModule</title>
<path fill="none" stroke="black" d="M379,-84.91C379,-84.91 379,-103.79 379,-103.79"/>
<polygon fill="black" stroke="black" points="375.5,-103.79 379,-113.79 382.5,-103.79 375.5,-103.79"/>
</g>
<!-- StripePaymentsModule -->
<g id="node4" class="node">
<title>StripePaymentsModule</title>
<polygon fill="#8dd3c7" stroke="black" points="280.94,-84.8 277.94,-88.8 256.94,-88.8 253.94,-84.8 133.06,-84.8 133.06,-48.8 280.94,-48.8 280.94,-84.8"/>
<text text-anchor="middle" x="207" y="-62.6" font-family="Times,serif" font-size="14.00">StripePaymentsModule</text>
</g>
<!-- StripePaymentsModule&#45;&gt;AppModule -->
<g id="edge4" class="edge">
<title>StripePaymentsModule&#45;&gt;AppModule</title>
<path fill="none" stroke="black" d="M207,-84.82C207,-102.17 207,-125.8 207,-125.8 207,-125.8 326.92,-125.8 326.92,-125.8"/>
<polygon fill="black" stroke="black" points="326.92,-129.3 336.92,-125.8 326.92,-122.3 326.92,-129.3"/>
</g>
<!-- UsersModule -->
<g id="node5" class="node">
<title>UsersModule</title>
<polygon fill="#8dd3c7" stroke="black" points="115.94,-84.8 112.94,-88.8 91.94,-88.8 88.94,-84.8 24.06,-84.8 24.06,-48.8 115.94,-48.8 115.94,-84.8"/>
<text text-anchor="middle" x="70" y="-62.6" font-family="Times,serif" font-size="14.00">UsersModule</text>
</g>
<!-- UsersModule&#45;&gt;AppModule -->
<g id="edge5" class="edge">
<title>UsersModule&#45;&gt;AppModule</title>
<path fill="none" stroke="black" d="M70,-85.08C70,-106.12 70,-137.8 70,-137.8 70,-137.8 327.33,-137.8 327.33,-137.8"/>
<polygon fill="black" stroke="black" points="327.33,-141.3 337.33,-137.8 327.33,-134.3 327.33,-141.3"/>
</g>
</g>
</svg>
