<svg xmlns="http://www.w3.org/2000/svg" xmlns:xlink="http://www.w3.org/1999/xlink" width="184pt" height="232" viewBox="0 0 184 173.8"><g id="graph0" class="graph" transform="scale(1 1) rotate(0) translate(4 169.8)"><title>dependencies</title><polygon fill="#fff" stroke="transparent" points="-4 4 -4 -169.8 180 -169.8 180 4 -4 4"/><text x="88" y="-8.2" font-family="sans-serif" font-size="14" text-anchor="middle">dependencies</text><g id="clust1" class="cluster"><title>cluster_ShopsModule</title><polygon fill="none" stroke="#000" stroke-dasharray="1 5" points="8 -32.8 8 -157.8 168 -157.8 168 -32.8 8 -32.8"/></g><g id="clust6" class="cluster"><title>cluster_ShopsModule_providers</title><polygon fill="none" stroke="#000" points="16 -40.8 16 -92.8 160 -92.8 160 -40.8 16 -40.8"/></g><g id="node1" class="node"><title>ShopsService</title><ellipse cx="88" cy="-66.8" fill="#fdb462" stroke="#000" rx="63.72" ry="18"/><text x="88" y="-62.6" font-family="Times,serif" font-size="14" text-anchor="middle">ShopsService</text></g><g id="node2" class="node"><title>ShopsModule</title><polygon fill="#8dd3c7" stroke="#000" points="134.79 -149.8 131.79 -153.8 110.79 -153.8 107.79 -149.8 41.21 -149.8 41.21 -113.8 134.79 -113.8 134.79 -149.8"/><text x="88" y="-127.6" font-family="Times,serif" font-size="14" text-anchor="middle">ShopsModule</text></g><g id="edge1" class="edge"><title>ShopsService-&gt;ShopsModule</title><path fill="none" stroke="#000" d="M88,-84.91C88,-84.91 88,-103.79 88,-103.79"/><polygon fill="#000" stroke="#000" points="84.5 -103.79 88 -113.79 91.5 -103.79 84.5 -103.79"/></g></g></svg>