<svg xmlns="http://www.w3.org/2000/svg" xmlns:xlink="http://www.w3.org/1999/xlink" width="574pt" height="247pt" viewBox="0 0 574 246.8"><g id="graph0" class="graph" transform="scale(1 1) rotate(0) translate(4 242.8)"><title>dependencies</title><polygon fill="#fff" stroke="transparent" points="-4 4 -4 -242.8 570 -242.8 570 4 -4 4"/><text x="283" y="-8.2" font-family="sans-serif" font-size="14" text-anchor="middle">dependencies</text><g id="clust1" class="cluster"><title>cluster_UsersModule</title><polygon fill="none" stroke="#000" stroke-dasharray="1 5" points="8 -32.8 8 -230.8 558 -230.8 558 -32.8 8 -32.8"/></g><g id="clust4" class="cluster"><title>cluster_UsersModule_exports</title><polygon fill="none" stroke="#000" points="133 -170.8 133 -222.8 411 -222.8 411 -170.8 133 -170.8"/></g><g id="clust6" class="cluster"><title>cluster_UsersModule_providers</title><polygon fill="none" stroke="#000" points="188 -40.8 188 -92.8 550 -92.8 550 -40.8 188 -40.8"/></g><g id="clust3" class="cluster"><title>cluster_UsersModule_imports</title><polygon fill="none" stroke="#000" points="16 -40.8 16 -92.8 180 -92.8 180 -40.8 16 -40.8"/></g><g id="node1" class="node"><title>StripePaymentsModule</title><polygon fill="#8dd3c7" stroke="#000" points="171.94 -84.8 168.94 -88.8 147.94 -88.8 144.94 -84.8 24.06 -84.8 24.06 -48.8 171.94 -48.8 171.94 -84.8"/><text x="98" y="-62.6" font-family="Times,serif" font-size="14" text-anchor="middle">StripePaymentsModule</text></g><g id="node2" class="node"><title>UsersModule</title><polygon fill="#8dd3c7" stroke="#000" points="303.94 -149.8 300.94 -153.8 279.94 -153.8 276.94 -149.8 212.06 -149.8 212.06 -113.8 303.94 -113.8 303.94 -149.8"/><text x="258" y="-127.6" font-family="Times,serif" font-size="14" text-anchor="middle">UsersModule</text></g><g id="edge1" class="edge"><title>StripePaymentsModule-&gt;UsersModule</title><path fill="none" stroke="#000" d="M156.52,-84.91C156.52,-104.14 156.52,-131.8 156.52,-131.8 156.52,-131.8 202.01,-131.8 202.01,-131.8"/><polygon fill="#000" stroke="#000" points="202.01 -135.3 212.01 -131.8 202.01 -128.3 202.01 -135.3"/></g><g id="node3" class="node"><title>UsersAddressesService</title><polygon fill="#fb8072" stroke="#000" points="403.41 -214.8 252.59 -214.8 252.59 -178.8 403.41 -178.8 403.41 -214.8"/><text x="328" y="-192.6" font-family="Times,serif" font-size="14" text-anchor="middle">UsersAddressesService</text></g><g id="edge2" class="edge"><title>UsersModule-&gt;UsersAddressesService</title><path fill="none" stroke="#000" stroke-dasharray="5 2" d="M278.13,-149.91C278.13,-149.91 278.13,-168.79 278.13,-168.79"/><polygon fill="#000" stroke="#000" points="274.63 -168.79 278.13 -178.79 281.63 -168.79 274.63 -168.79"/></g><g id="node4" class="node"><title>UsersService</title><polygon fill="#fb8072" stroke="#000" points="234.86 -214.8 141.14 -214.8 141.14 -178.8 234.86 -178.8 234.86 -214.8"/><text x="188" y="-192.6" font-family="Times,serif" font-size="14" text-anchor="middle">UsersService</text></g><g id="edge3" class="edge"><title>UsersModule-&gt;UsersService</title><path fill="none" stroke="#000" stroke-dasharray="5 2" d="M223.48,-149.91C223.48,-149.91 223.48,-168.79 223.48,-168.79"/><polygon fill="#000" stroke="#000" points="219.98 -168.79 223.48 -178.79 226.98 -168.79 219.98 -168.79"/></g><g id="node5" class="node"><title>UsersAddressesService</title><ellipse cx="440" cy="-66.8" fill="#fdb462" stroke="#000" rx="101.86" ry="18"/><text x="440" y="-62.6" font-family="Times,serif" font-size="14" text-anchor="middle">UsersAddressesService</text></g><g id="edge4" class="edge"><title>UsersAddressesService-&gt;UsersModule</title><path fill="none" stroke="#000" d="M370.89,-80.27C370.89,-99.31 370.89,-131.8 370.89,-131.8 370.89,-131.8 313.92,-131.8 313.92,-131.8"/><polygon fill="#000" stroke="#000" points="313.92 -128.3 303.92 -131.8 313.92 -135.3 313.92 -128.3"/></g><g id="node6" class="node"><title>UsersService</title><ellipse cx="258" cy="-66.8" fill="#fdb462" stroke="#000" rx="61.97" ry="18"/><text x="258" y="-62.6" font-family="Times,serif" font-size="14" text-anchor="middle">UsersService</text></g><g id="edge5" class="edge"><title>UsersService-&gt;UsersModule</title><path fill="none" stroke="#000" d="M258,-84.91C258,-84.91 258,-103.79 258,-103.79"/><polygon fill="#000" stroke="#000" points="254.5 -103.79 258 -113.79 261.5 -103.79 254.5 -103.79"/></g></g></svg>