<svg xmlns="http://www.w3.org/2000/svg" xmlns:xlink="http://www.w3.org/1999/xlink" width="1420" height="232" viewBox="0 0 1065 173.8"><g id="graph0" class="graph" transform="scale(1 1) rotate(0) translate(4 169.8)"><title>dependencies</title><polygon fill="#fff" stroke="transparent" points="-4 4 -4 -169.8 1061 -169.8 1061 4 -4 4"/><text x="528.5" y="-8.2" font-family="sans-serif" font-size="14" text-anchor="middle">dependencies</text><g id="clust1" class="cluster"><title>cluster_AuthenticationModule</title><polygon fill="none" stroke="#000" stroke-dasharray="1 5" points="8 -32.8 8 -157.8 1049 -157.8 1049 -32.8 8 -32.8"/></g><g id="clust6" class="cluster"><title>cluster_AuthenticationModule_providers</title><polygon fill="none" stroke="#000" points="310 -40.8 310 -92.8 1041 -92.8 1041 -40.8 310 -40.8"/></g><g id="clust3" class="cluster"><title>cluster_AuthenticationModule_imports</title><polygon fill="none" stroke="#000" points="16 -40.8 16 -92.8 302 -92.8 302 -40.8 16 -40.8"/></g><g id="node1" class="node"><title>EmailVerificationModule</title><polygon fill="#8dd3c7" stroke="#000" points="294.12 -84.8 291.12 -88.8 270.12 -88.8 267.12 -84.8 133.88 -84.8 133.88 -48.8 294.12 -48.8 294.12 -84.8"/><text x="214" y="-62.6" font-family="Times,serif" font-size="14" text-anchor="middle">EmailVerificationModule</text></g><g id="node3" class="node"><title>AuthenticationModule</title><polygon fill="#8dd3c7" stroke="#000" points="524.25 -149.8 521.25 -153.8 500.25 -153.8 497.25 -149.8 381.75 -149.8 381.75 -113.8 524.25 -113.8 524.25 -149.8"/><text x="453" y="-127.6" font-family="Times,serif" font-size="14" text-anchor="middle">AuthenticationModule</text></g><g id="edge1" class="edge"><title>EmailVerificationModule-&gt;AuthenticationModule</title><path fill="none" stroke="#000" d="M214,-84.82C214,-102.17 214,-125.8 214,-125.8 214,-125.8 371.62,-125.8 371.62,-125.8"/><polygon fill="#000" stroke="#000" points="371.62 -129.3 381.62 -125.8 371.62 -122.3 371.62 -129.3"/></g><g id="node2" class="node"><title>UsersModule</title><polygon fill="#8dd3c7" stroke="#000" points="115.94 -84.8 112.94 -88.8 91.94 -88.8 88.94 -84.8 24.06 -84.8 24.06 -48.8 115.94 -48.8 115.94 -84.8"/><text x="70" y="-62.6" font-family="Times,serif" font-size="14" text-anchor="middle">UsersModule</text></g><g id="edge2" class="edge"><title>UsersModule-&gt;AuthenticationModule</title><path fill="none" stroke="#000" d="M70,-85.08C70,-106.12 70,-137.8 70,-137.8 70,-137.8 371.41,-137.8 371.41,-137.8"/><polygon fill="#000" stroke="#000" points="371.41 -141.3 381.41 -137.8 371.41 -134.3 371.41 -141.3"/></g><g id="node4" class="node"><title>AuthenticationService</title><ellipse cx="936" cy="-66.8" fill="#fdb462" stroke="#000" rx="97.27" ry="18"/><text x="936" y="-62.6" font-family="Times,serif" font-size="14" text-anchor="middle">AuthenticationService</text></g><g id="edge3" class="edge"><title>AuthenticationService-&gt;AuthenticationModule</title><path fill="none" stroke="#000" d="M936,-85.08C936,-106.12 936,-137.8 936,-137.8 936,-137.8 534.27,-137.8 534.27,-137.8"/><polygon fill="#000" stroke="#000" points="534.27 -134.3 524.27 -137.8 534.27 -141.3 534.27 -134.3"/></g><g id="node5" class="node"><title>JwtRefreshTokenStrategy</title><ellipse cx="709" cy="-66.8" fill="#fdb462" stroke="#000" rx="111.17" ry="18"/><text x="709" y="-62.6" font-family="Times,serif" font-size="14" text-anchor="middle">JwtRefreshTokenStrategy</text></g><g id="edge4" class="edge"><title>JwtRefreshTokenStrategy-&gt;AuthenticationModule</title><path fill="none" stroke="#000" d="M709,-84.82C709,-102.17 709,-125.8 709,-125.8 709,-125.8 534.31,-125.8 534.31,-125.8"/><polygon fill="#000" stroke="#000" points="534.31 -122.3 524.31 -125.8 534.31 -129.3 534.31 -122.3"/></g><g id="node6" class="node"><title>JwtStrategy</title><ellipse cx="523" cy="-66.8" fill="#fdb462" stroke="#000" rx="56.77" ry="18"/><text x="523" y="-62.6" font-family="Times,serif" font-size="14" text-anchor="middle">JwtStrategy</text></g><g id="edge5" class="edge"><title>JwtStrategy-&gt;AuthenticationModule</title><path fill="none" stroke="#000" d="M495.37,-82.53C495.37,-82.53 495.37,-103.45 495.37,-103.45"/><polygon fill="#000" stroke="#000" points="491.87 -103.45 495.37 -113.45 498.87 -103.45 491.87 -103.45"/></g><g id="node7" class="node"><title>LocalStrategy</title><ellipse cx="383" cy="-66.8" fill="#fdb462" stroke="#000" rx="65.4" ry="18"/><text x="383" y="-62.6" font-family="Times,serif" font-size="14" text-anchor="middle">LocalStrategy</text></g><g id="edge6" class="edge"><title>LocalStrategy-&gt;AuthenticationModule</title><path fill="none" stroke="#000" d="M414.91,-82.53C414.91,-82.53 414.91,-103.45 414.91,-103.45"/><polygon fill="#000" stroke="#000" points="411.41 -103.45 414.91 -113.45 418.41 -103.45 411.41 -103.45"/></g></g></svg>