<?xml version="1.0" encoding="UTF-8" standalone="no"?>
<!DOCTYPE svg PUBLIC "-//W3C//DTD SVG 1.1//EN"
 "http://www.w3.org/Graphics/SVG/1.1/DTD/svg11.dtd">
<!-- Generated by graphviz version 3.0.0 (20220226.1711)
 -->
<!-- Title: dependencies Pages: 1 -->
<svg width="2048pt" height="391pt"
 viewBox="0.00 0.00 2048.00 390.80" xmlns="http://www.w3.org/2000/svg" xmlns:xlink="http://www.w3.org/1999/xlink">
<g id="graph0" class="graph" transform="scale(1 1) rotate(0) translate(4 386.8)">
<title>dependencies</title>
<polygon fill="white" stroke="transparent" points="-4,4 -4,-386.8 2044,-386.8 2044,4 -4,4"/>
<text text-anchor="middle" x="1020" y="-8.2" font-family="sans-serif" font-size="14.00">dependencies</text>
<g id="clust1" class="cluster">
<title>cluster_AppModule</title>
<polygon fill="none" stroke="black" stroke-dasharray="1,5" points="454,-32.8 454,-374.8 710,-374.8 710,-32.8 454,-32.8"/>
</g>
<g id="clust3" class="cluster">
<title>cluster_AppModule_imports</title>
<polygon fill="none" stroke="black" points="472,-40.8 472,-309.8 690,-309.8 690,-40.8 472,-40.8"/>
</g>
<g id="clust7" class="cluster">
<title>cluster_AuthenticationModule</title>
<polygon fill="none" stroke="black" stroke-dasharray="1,5" points="1284,-173.8 1284,-241.8 2032,-241.8 2032,-173.8 1284,-173.8"/>
</g>
<g id="clust12" class="cluster">
<title>cluster_AuthenticationModule_providers</title>
<polygon fill="none" stroke="black" points="1292,-181.8 1292,-233.8 2024,-233.8 2024,-181.8 1292,-181.8"/>
</g>
<g id="clust13" class="cluster">
<title>cluster_EmailModule</title>
<polygon fill="none" stroke="black" stroke-dasharray="1,5" points="718,-173.8 718,-241.8 994,-241.8 994,-173.8 718,-173.8"/>
</g>
<g id="clust16" class="cluster">
<title>cluster_EmailModule_exports</title>
<polygon fill="none" stroke="black" points="876,-181.8 876,-233.8 986,-233.8 986,-181.8 876,-181.8"/>
</g>
<g id="clust18" class="cluster">
<title>cluster_EmailModule_providers</title>
<polygon fill="none" stroke="black" points="726,-181.8 726,-233.8 868,-233.8 868,-181.8 726,-181.8"/>
</g>
<g id="clust19" class="cluster">
<title>cluster_EmailVerificationModule</title>
<polygon fill="none" stroke="black" stroke-dasharray="1,5" points="8,-249.8 8,-317.8 446,-317.8 446,-249.8 8,-249.8"/>
</g>
<g id="clust22" class="cluster">
<title>cluster_EmailVerificationModule_exports</title>
<polygon fill="none" stroke="black" points="260,-257.8 260,-309.8 438,-309.8 438,-257.8 260,-257.8"/>
</g>
<g id="clust24" class="cluster">
<title>cluster_EmailVerificationModule_providers</title>
<polygon fill="none" stroke="black" points="16,-257.8 16,-309.8 252,-309.8 252,-257.8 16,-257.8"/>
</g>
<g id="clust25" class="cluster">
<title>cluster_StripePaymentsModule</title>
<polygon fill="none" stroke="black" stroke-dasharray="1,5" points="718,-97.8 718,-165.8 1126,-165.8 1126,-97.8 718,-97.8"/>
</g>
<g id="clust28" class="cluster">
<title>cluster_StripePaymentsModule_exports</title>
<polygon fill="none" stroke="black" points="952,-105.8 952,-157.8 1118,-157.8 1118,-105.8 952,-105.8"/>
</g>
<g id="clust30" class="cluster">
<title>cluster_StripePaymentsModule_providers</title>
<polygon fill="none" stroke="black" points="726,-105.8 726,-157.8 944,-157.8 944,-105.8 726,-105.8"/>
</g>
<g id="clust31" class="cluster">
<title>cluster_UsersModule</title>
<polygon fill="none" stroke="black" stroke-dasharray="1,5" points="1002,-173.8 1002,-241.8 1276,-241.8 1276,-173.8 1002,-173.8"/>
</g>
<g id="clust34" class="cluster">
<title>cluster_UsersModule_exports</title>
<polygon fill="none" stroke="black" points="1158,-181.8 1158,-233.8 1268,-233.8 1268,-181.8 1158,-181.8"/>
</g>
<g id="clust36" class="cluster">
<title>cluster_UsersModule_providers</title>
<polygon fill="none" stroke="black" points="1010,-181.8 1010,-233.8 1150,-233.8 1150,-181.8 1010,-181.8"/>
</g>
<!-- AuthenticationModule -->
<g id="node1" class="node">
<title>AuthenticationModule</title>
<polygon fill="#8dd3c7" stroke="black" points="682.25,-301.8 679.25,-305.8 658.25,-305.8 655.25,-301.8 539.75,-301.8 539.75,-265.8 682.25,-265.8 682.25,-301.8"/>
<text text-anchor="middle" x="611" y="-279.6" font-family="Times,serif" font-size="14.00">AuthenticationModule</text>
</g>
<!-- AppModule -->
<g id="node6" class="node">
<title>AppModule</title>
<polygon fill="#8dd3c7" stroke="black" points="562.66,-366.8 559.66,-370.8 538.66,-370.8 535.66,-366.8 479.34,-366.8 479.34,-330.8 562.66,-330.8 562.66,-366.8"/>
<text text-anchor="middle" x="521" y="-344.6" font-family="Times,serif" font-size="14.00">AppModule</text>
</g>
<!-- AuthenticationModule&#45;&gt;AppModule -->
<g id="edge1" class="edge">
<title>AuthenticationModule&#45;&gt;AppModule</title>
<path fill="none" stroke="black" d="M551.23,-301.91C551.23,-301.91 551.23,-320.79 551.23,-320.79"/>
<polygon fill="black" stroke="black" points="547.73,-320.79 551.23,-330.79 554.73,-320.79 547.73,-320.79"/>
</g>
<!-- EmailModule -->
<g id="node2" class="node">
<title>EmailModule</title>
<polygon fill="#8dd3c7" stroke="black" points="572.49,-149.8 569.49,-153.8 548.49,-153.8 545.49,-149.8 479.51,-149.8 479.51,-113.8 572.49,-113.8 572.49,-149.8"/>
<text text-anchor="middle" x="526" y="-127.6" font-family="Times,serif" font-size="14.00">EmailModule</text>
</g>
<!-- EmailVerificationModule -->
<g id="node3" class="node">
<title>EmailVerificationModule</title>
<polygon fill="#8dd3c7" stroke="black" points="662.12,-225.8 659.12,-229.8 638.12,-229.8 635.12,-225.8 501.88,-225.8 501.88,-189.8 662.12,-189.8 662.12,-225.8"/>
<text text-anchor="middle" x="582" y="-203.6" font-family="Times,serif" font-size="14.00">EmailVerificationModule</text>
</g>
<!-- EmailModule&#45;&gt;EmailVerificationModule -->
<g id="edge14" class="edge">
<title>EmailModule&#45;&gt;EmailVerificationModule</title>
<path fill="none" stroke="black" d="M519.39,-149.81C519.39,-149.81 519.39,-179.65 519.39,-179.65"/>
<polygon fill="black" stroke="black" points="515.89,-179.65 519.39,-189.65 522.89,-179.65 515.89,-179.65"/>
</g>
<!-- EmailModule&#45;&gt;AppModule -->
<g id="edge2" class="edge">
<title>EmailModule&#45;&gt;AppModule</title>
<path fill="none" stroke="black" d="M485.05,-149.93C485.05,-149.93 485.05,-320.57 485.05,-320.57"/>
<polygon fill="black" stroke="black" points="481.55,-320.57 485.05,-330.57 488.55,-320.57 481.55,-320.57"/>
</g>
<!-- EmailService  -->
<g id="node11" class="node">
<title>EmailService </title>
<polygon fill="#fb8072" stroke="black" points="978.41,-225.8 883.59,-225.8 883.59,-189.8 978.41,-189.8 978.41,-225.8"/>
<text text-anchor="middle" x="931" y="-203.6" font-family="Times,serif" font-size="14.00">EmailService </text>
</g>
<!-- EmailModule&#45;&gt;EmailService  -->
<g id="edge12" class="edge">
<title>EmailModule&#45;&gt;EmailService </title>
<path fill="none" stroke="black" stroke-dasharray="5,2" d="M537.09,-150.22C537.09,-159.08 537.09,-167.8 537.09,-167.8 537.09,-167.8 909.58,-167.8 909.58,-167.8 909.58,-167.8 909.58,-179.67 909.58,-179.67"/>
<polygon fill="black" stroke="black" points="906.08,-179.67 909.58,-189.67 913.08,-179.67 906.08,-179.67"/>
</g>
<!-- EmailVerificationModule&#45;&gt;AuthenticationModule -->
<g id="edge6" class="edge">
<title>EmailVerificationModule&#45;&gt;AuthenticationModule</title>
<path fill="none" stroke="black" d="M600.97,-225.81C600.97,-225.81 600.97,-255.65 600.97,-255.65"/>
<polygon fill="black" stroke="black" points="597.47,-255.65 600.97,-265.65 604.47,-255.65 597.47,-255.65"/>
</g>
<!-- EmailVerificationModule&#45;&gt;AppModule -->
<g id="edge3" class="edge">
<title>EmailVerificationModule&#45;&gt;AppModule</title>
<path fill="none" stroke="black" d="M526.98,-225.94C526.98,-225.94 526.98,-320.73 526.98,-320.73"/>
<polygon fill="black" stroke="black" points="523.48,-320.72 526.98,-330.73 530.48,-320.73 523.48,-320.72"/>
</g>
<!-- EmailVerificationService  -->
<g id="node13" class="node">
<title>EmailVerificationService </title>
<polygon fill="#fb8072" stroke="black" points="430.05,-301.8 267.95,-301.8 267.95,-265.8 430.05,-265.8 430.05,-301.8"/>
<text text-anchor="middle" x="349" y="-279.6" font-family="Times,serif" font-size="14.00">EmailVerificationService </text>
</g>
<!-- EmailVerificationModule&#45;&gt;EmailVerificationService  -->
<g id="edge16" class="edge">
<title>EmailVerificationModule&#45;&gt;EmailVerificationService </title>
<path fill="none" stroke="black" stroke-dasharray="5,2" d="M514.33,-225.81C514.33,-248.29 514.33,-283.8 514.33,-283.8 514.33,-283.8 440.21,-283.8 440.21,-283.8"/>
<polygon fill="black" stroke="black" points="440.21,-280.3 430.21,-283.8 440.21,-287.3 440.21,-280.3"/>
</g>
<!-- StripePaymentsModule -->
<g id="node4" class="node">
<title>StripePaymentsModule</title>
<polygon fill="#8dd3c7" stroke="black" points="681.94,-84.8 678.94,-88.8 657.94,-88.8 654.94,-84.8 534.06,-84.8 534.06,-48.8 681.94,-48.8 681.94,-84.8"/>
<text text-anchor="middle" x="608" y="-62.6" font-family="Times,serif" font-size="14.00">StripePaymentsModule</text>
</g>
<!-- UsersModule -->
<g id="node5" class="node">
<title>UsersModule</title>
<polygon fill="#8dd3c7" stroke="black" points="681.94,-149.8 678.94,-153.8 657.94,-153.8 654.94,-149.8 590.06,-149.8 590.06,-113.8 681.94,-113.8 681.94,-149.8"/>
<text text-anchor="middle" x="636" y="-127.6" font-family="Times,serif" font-size="14.00">UsersModule</text>
</g>
<!-- StripePaymentsModule&#45;&gt;UsersModule -->
<g id="edge20" class="edge">
<title>StripePaymentsModule&#45;&gt;UsersModule</title>
<path fill="none" stroke="black" d="M636,-84.91C636,-84.91 636,-103.79 636,-103.79"/>
<polygon fill="black" stroke="black" points="632.5,-103.79 636,-113.79 639.5,-103.79 632.5,-103.79"/>
</g>
<!-- StripePaymentsModule&#45;&gt;AppModule -->
<g id="edge4" class="edge">
<title>StripePaymentsModule&#45;&gt;AppModule</title>
<path fill="none" stroke="black" d="M581.39,-85.26C581.39,-115.63 581.39,-172.8 581.39,-172.8 581.39,-172.8 490.6,-172.8 490.6,-172.8 490.6,-172.8 490.6,-320.63 490.6,-320.63"/>
<polygon fill="black" stroke="black" points="487.1,-320.63 490.6,-330.63 494.1,-320.63 487.1,-320.63"/>
</g>
<!-- StripePaymentsService  -->
<g id="node15" class="node">
<title>StripePaymentsService </title>
<polygon fill="#fb8072" stroke="black" points="1109.86,-149.8 960.14,-149.8 960.14,-113.8 1109.86,-113.8 1109.86,-149.8"/>
<text text-anchor="middle" x="1035" y="-127.6" font-family="Times,serif" font-size="14.00">StripePaymentsService </text>
</g>
<!-- StripePaymentsModule&#45;&gt;StripePaymentsService  -->
<g id="edge18" class="edge">
<title>StripePaymentsModule&#45;&gt;StripePaymentsService </title>
<path fill="none" stroke="black" stroke-dasharray="5,2" d="M681.89,-60.8C804.1,-60.8 1035,-60.8 1035,-60.8 1035,-60.8 1035,-103.52 1035,-103.52"/>
<polygon fill="black" stroke="black" points="1031.5,-103.52 1035,-113.52 1038.5,-103.52 1031.5,-103.52"/>
</g>
<!-- UsersModule&#45;&gt;AuthenticationModule -->
<g id="edge7" class="edge">
<title>UsersModule&#45;&gt;AuthenticationModule</title>
<path fill="none" stroke="black" d="M676.87,-149.83C676.87,-149.83 676.87,-255.79 676.87,-255.79"/>
<polygon fill="black" stroke="black" points="673.37,-255.79 676.87,-265.79 680.37,-255.79 673.37,-255.79"/>
</g>
<!-- UsersModule&#45;&gt;EmailVerificationModule -->
<g id="edge15" class="edge">
<title>UsersModule&#45;&gt;EmailVerificationModule</title>
<path fill="none" stroke="black" d="M638.3,-149.81C638.3,-149.81 638.3,-179.65 638.3,-179.65"/>
<polygon fill="black" stroke="black" points="634.8,-179.65 638.3,-189.65 641.8,-179.65 634.8,-179.65"/>
</g>
<!-- UsersModule&#45;&gt;AppModule -->
<g id="edge5" class="edge">
<title>UsersModule&#45;&gt;AppModule</title>
<path fill="none" stroke="black" d="M614.29,-150.04C614.29,-165.37 614.29,-184.8 614.29,-184.8 614.29,-184.8 496.14,-184.8 496.14,-184.8 496.14,-184.8 496.14,-320.62 496.14,-320.62"/>
<polygon fill="black" stroke="black" points="492.64,-320.62 496.14,-330.62 499.64,-320.62 492.64,-320.62"/>
</g>
<!-- UsersService  -->
<g id="node17" class="node">
<title>UsersService </title>
<polygon fill="#fb8072" stroke="black" points="1259.86,-225.8 1166.14,-225.8 1166.14,-189.8 1259.86,-189.8 1259.86,-225.8"/>
<text text-anchor="middle" x="1213" y="-203.6" font-family="Times,serif" font-size="14.00">UsersService </text>
</g>
<!-- UsersModule&#45;&gt;UsersService  -->
<g id="edge21" class="edge">
<title>UsersModule&#45;&gt;UsersService </title>
<path fill="none" stroke="black" stroke-dasharray="5,2" d="M667.16,-149.99C667.16,-153.34 667.16,-155.8 667.16,-155.8 667.16,-155.8 1213,-155.8 1213,-155.8 1213,-155.8 1213,-179.61 1213,-179.61"/>
<polygon fill="black" stroke="black" points="1209.5,-179.61 1213,-189.61 1216.5,-179.61 1209.5,-179.61"/>
</g>
<!-- AuthenticationService -->
<g id="node7" class="node">
<title>AuthenticationService</title>
<ellipse fill="#fdb462" stroke="black" cx="1638" cy="-207.8" rx="97.27" ry="18"/>
<text text-anchor="middle" x="1638" y="-203.6" font-family="Times,serif" font-size="14.00">AuthenticationService</text>
</g>
<!-- AuthenticationService&#45;&gt;AuthenticationModule -->
<g id="edge8" class="edge">
<title>AuthenticationService&#45;&gt;AuthenticationModule</title>
<path fill="none" stroke="black" d="M1638,-225.84C1638,-247.46 1638,-280.8 1638,-280.8 1638,-280.8 692.4,-280.8 692.4,-280.8"/>
<polygon fill="black" stroke="black" points="692.4,-277.3 682.4,-280.8 692.4,-284.3 692.4,-277.3"/>
</g>
<!-- JwtRefreshTokenStrategy -->
<g id="node8" class="node">
<title>JwtRefreshTokenStrategy</title>
<ellipse fill="#fdb462" stroke="black" cx="1411" cy="-207.8" rx="111.17" ry="18"/>
<text text-anchor="middle" x="1411" y="-203.6" font-family="Times,serif" font-size="14.00">JwtRefreshTokenStrategy</text>
</g>
<!-- JwtRefreshTokenStrategy&#45;&gt;AuthenticationModule -->
<g id="edge9" class="edge">
<title>JwtRefreshTokenStrategy&#45;&gt;AuthenticationModule</title>
<path fill="none" stroke="black" d="M1411,-225.83C1411,-245.38 1411,-273.8 1411,-273.8 1411,-273.8 692.35,-273.8 692.35,-273.8"/>
<polygon fill="black" stroke="black" points="692.35,-270.3 682.35,-273.8 692.35,-277.3 692.35,-270.3"/>
</g>
<!-- JwtStrategy -->
<g id="node9" class="node">
<title>JwtStrategy</title>
<ellipse fill="#fdb462" stroke="black" cx="1959" cy="-207.8" rx="56.77" ry="18"/>
<text text-anchor="middle" x="1959" y="-203.6" font-family="Times,serif" font-size="14.00">JwtStrategy</text>
</g>
<!-- JwtStrategy&#45;&gt;AuthenticationModule -->
<g id="edge10" class="edge">
<title>JwtStrategy&#45;&gt;AuthenticationModule</title>
<path fill="none" stroke="black" d="M1959,-225.83C1959,-251.31 1959,-294.8 1959,-294.8 1959,-294.8 692.52,-294.8 692.52,-294.8"/>
<polygon fill="black" stroke="black" points="692.52,-291.3 682.52,-294.8 692.52,-298.3 692.52,-291.3"/>
</g>
<!-- LocalStrategy -->
<g id="node10" class="node">
<title>LocalStrategy</title>
<ellipse fill="#fdb462" stroke="black" cx="1819" cy="-207.8" rx="65.4" ry="18"/>
<text text-anchor="middle" x="1819" y="-203.6" font-family="Times,serif" font-size="14.00">LocalStrategy</text>
</g>
<!-- LocalStrategy&#45;&gt;AuthenticationModule -->
<g id="edge11" class="edge">
<title>LocalStrategy&#45;&gt;AuthenticationModule</title>
<path fill="none" stroke="black" d="M1819,-225.95C1819,-249.56 1819,-287.8 1819,-287.8 1819,-287.8 692.5,-287.8 692.5,-287.8"/>
<polygon fill="black" stroke="black" points="692.5,-284.3 682.5,-287.8 692.5,-291.3 692.5,-284.3"/>
</g>
<!-- EmailService -->
<g id="node12" class="node">
<title>EmailService</title>
<ellipse fill="#fdb462" stroke="black" cx="797" cy="-207.8" rx="63.11" ry="18"/>
<text text-anchor="middle" x="797" y="-203.6" font-family="Times,serif" font-size="14.00">EmailService</text>
</g>
<!-- EmailService&#45;&gt;EmailModule -->
<g id="edge13" class="edge">
<title>EmailService&#45;&gt;EmailModule</title>
<path fill="none" stroke="black" d="M797.22,-189.6C797.22,-183.77 797.22,-178.8 797.22,-178.8 797.22,-178.8 554.79,-178.8 554.79,-178.8 554.79,-178.8 554.79,-159.84 554.79,-159.84"/>
<polygon fill="black" stroke="black" points="558.29,-159.84 554.79,-149.84 551.29,-159.84 558.29,-159.84"/>
</g>
<!-- EmailVerificationService -->
<g id="node14" class="node">
<title>EmailVerificationService</title>
<ellipse fill="#fdb462" stroke="black" cx="134" cy="-283.8" rx="109.92" ry="18"/>
<text text-anchor="middle" x="134" y="-279.6" font-family="Times,serif" font-size="14.00">EmailVerificationService</text>
</g>
<!-- EmailVerificationService&#45;&gt;EmailVerificationModule -->
<g id="edge17" class="edge">
<title>EmailVerificationService&#45;&gt;EmailVerificationModule</title>
<path fill="none" stroke="black" d="M134,-265.79C134,-243.31 134,-207.8 134,-207.8 134,-207.8 491.65,-207.8 491.65,-207.8"/>
<polygon fill="black" stroke="black" points="491.65,-211.3 501.65,-207.8 491.65,-204.3 491.65,-211.3"/>
</g>
<!-- StripePaymentsService -->
<g id="node16" class="node">
<title>StripePaymentsService</title>
<ellipse fill="#fdb462" stroke="black" cx="835" cy="-131.8" rx="100.73" ry="18"/>
<text text-anchor="middle" x="835" y="-127.6" font-family="Times,serif" font-size="14.00">StripePaymentsService</text>
</g>
<!-- StripePaymentsService&#45;&gt;StripePaymentsModule -->
<g id="edge19" class="edge">
<title>StripePaymentsService&#45;&gt;StripePaymentsModule</title>
<path fill="none" stroke="black" d="M835,-113.78C835,-96.43 835,-72.8 835,-72.8 835,-72.8 692.01,-72.8 692.01,-72.8"/>
<polygon fill="black" stroke="black" points="692.01,-69.3 682.01,-72.8 692.01,-76.3 692.01,-69.3"/>
</g>
<!-- UsersService -->
<g id="node18" class="node">
<title>UsersService</title>
<ellipse fill="#fdb462" stroke="black" cx="1080" cy="-207.8" rx="61.97" ry="18"/>
<text text-anchor="middle" x="1080" y="-203.6" font-family="Times,serif" font-size="14.00">UsersService</text>
</g>
<!-- UsersService&#45;&gt;UsersModule -->
<g id="edge22" class="edge">
<title>UsersService&#45;&gt;UsersModule</title>
<path fill="none" stroke="black" d="M1063.85,-190.41C1063.85,-177.38 1063.85,-161.8 1063.85,-161.8 1063.85,-161.8 672.01,-161.8 672.01,-161.8 672.01,-161.8 672.01,-159.94 672.01,-159.94"/>
<polygon fill="black" stroke="black" points="675.51,-159.94 672.01,-149.94 668.51,-159.94 675.51,-159.94"/>
</g>
</g>
</svg>
