<?xml version="1.0" encoding="UTF-8" standalone="no"?>
<!DOCTYPE svg PUBLIC "-//W3C//DTD SVG 1.1//EN"
 "http://www.w3.org/Graphics/SVG/1.1/DTD/svg11.dtd">
<!-- Generated by graphviz version 3.0.0 (20220226.1711)
 -->
<!-- Title: dependencies Pages: 1 -->
<svg width="502pt" height="247pt"
 viewBox="0.00 0.00 502.00 246.80" xmlns="http://www.w3.org/2000/svg" xmlns:xlink="http://www.w3.org/1999/xlink">
<g id="graph0" class="graph" transform="scale(1 1) rotate(0) translate(4 242.8)">
<title>dependencies</title>
<polygon fill="white" stroke="transparent" points="-4,4 -4,-242.8 498,-242.8 498,4 -4,4"/>
<text text-anchor="middle" x="247" y="-8.2" font-family="sans-serif" font-size="14.00">dependencies</text>
<g id="clust1" class="cluster">
<title>cluster_EmailVerificationModule</title>
<polygon fill="none" stroke="black" stroke-dasharray="1,5" points="8,-32.8 8,-230.8 486,-230.8 486,-32.8 8,-32.8"/>
</g>
<g id="clust4" class="cluster">
<title>cluster_EmailVerificationModule_exports</title>
<polygon fill="none" stroke="black" points="225,-170.8 225,-222.8 403,-222.8 403,-170.8 225,-170.8"/>
</g>
<g id="clust3" class="cluster">
<title>cluster_EmailVerificationModule_imports</title>
<polygon fill="none" stroke="black" points="260,-40.8 260,-92.8 478,-92.8 478,-40.8 260,-40.8"/>
</g>
<g id="clust6" class="cluster">
<title>cluster_EmailVerificationModule_providers</title>
<polygon fill="none" stroke="black" points="16,-40.8 16,-92.8 252,-92.8 252,-40.8 16,-40.8"/>
</g>
<!-- EmailModule -->
<g id="node1" class="node">
<title>EmailModule</title>
<polygon fill="#8dd3c7" stroke="black" points="470.49,-84.8 467.49,-88.8 446.49,-88.8 443.49,-84.8 377.51,-84.8 377.51,-48.8 470.49,-48.8 470.49,-84.8"/>
<text text-anchor="middle" x="424" y="-62.6" font-family="Times,serif" font-size="14.00">EmailModule</text>
</g>
<!-- EmailVerificationModule -->
<g id="node3" class="node">
<title>EmailVerificationModule</title>
<polygon fill="#8dd3c7" stroke="black" points="394.12,-149.8 391.12,-153.8 370.12,-153.8 367.12,-149.8 233.88,-149.8 233.88,-113.8 394.12,-113.8 394.12,-149.8"/>
<text text-anchor="middle" x="314" y="-127.6" font-family="Times,serif" font-size="14.00">EmailVerificationModule</text>
</g>
<!-- EmailModule&#45;&gt;EmailVerificationModule -->
<g id="edge1" class="edge">
<title>EmailModule&#45;&gt;EmailVerificationModule</title>
<path fill="none" stroke="black" d="M385.91,-84.91C385.91,-84.91 385.91,-103.79 385.91,-103.79"/>
<polygon fill="black" stroke="black" points="382.41,-103.79 385.91,-113.79 389.41,-103.79 382.41,-103.79"/>
</g>
<!-- UsersModule -->
<g id="node2" class="node">
<title>UsersModule</title>
<polygon fill="#8dd3c7" stroke="black" points="359.94,-84.8 356.94,-88.8 335.94,-88.8 332.94,-84.8 268.06,-84.8 268.06,-48.8 359.94,-48.8 359.94,-84.8"/>
<text text-anchor="middle" x="314" y="-62.6" font-family="Times,serif" font-size="14.00">UsersModule</text>
</g>
<!-- UsersModule&#45;&gt;EmailVerificationModule -->
<g id="edge2" class="edge">
<title>UsersModule&#45;&gt;EmailVerificationModule</title>
<path fill="none" stroke="black" d="M314,-84.91C314,-84.91 314,-103.79 314,-103.79"/>
<polygon fill="black" stroke="black" points="310.5,-103.79 314,-113.79 317.5,-103.79 310.5,-103.79"/>
</g>
<!-- EmailVerificationService  -->
<g id="node4" class="node">
<title>EmailVerificationService </title>
<polygon fill="#fb8072" stroke="black" points="395.05,-214.8 232.95,-214.8 232.95,-178.8 395.05,-178.8 395.05,-214.8"/>
<text text-anchor="middle" x="314" y="-192.6" font-family="Times,serif" font-size="14.00">EmailVerificationService </text>
</g>
<!-- EmailVerificationModule&#45;&gt;EmailVerificationService  -->
<g id="edge3" class="edge">
<title>EmailVerificationModule&#45;&gt;EmailVerificationService </title>
<path fill="none" stroke="black" stroke-dasharray="5,2" d="M314,-149.91C314,-149.91 314,-168.79 314,-168.79"/>
<polygon fill="black" stroke="black" points="310.5,-168.79 314,-178.79 317.5,-168.79 310.5,-168.79"/>
</g>
<!-- EmailVerificationService -->
<g id="node5" class="node">
<title>EmailVerificationService</title>
<ellipse fill="#fdb462" stroke="black" cx="134" cy="-66.8" rx="109.92" ry="18"/>
<text text-anchor="middle" x="134" y="-62.6" font-family="Times,serif" font-size="14.00">EmailVerificationService</text>
</g>
<!-- EmailVerificationService&#45;&gt;EmailVerificationModule -->
<g id="edge4" class="edge">
<title>EmailVerificationService&#45;&gt;EmailVerificationModule</title>
<path fill="none" stroke="black" d="M238.7,-72.34C238.7,-72.34 238.7,-103.55 238.7,-103.55"/>
<polygon fill="black" stroke="black" points="235.2,-103.55 238.7,-113.55 242.2,-103.55 235.2,-103.55"/>
</g>
</g>
</svg>
