<?xml version="1.0" encoding="UTF-8" standalone="no"?>
<!DOCTYPE svg PUBLIC "-//W3C//DTD SVG 1.1//EN"
 "http://www.w3.org/Graphics/SVG/1.1/DTD/svg11.dtd">
<!-- Generated by graphviz version 3.0.0 (20220226.1711)
 -->
<!-- Title: dependencies Pages: 1 -->
<svg width="598pt" height="174pt"
 viewBox="0.00 0.00 598.00 173.80" xmlns="http://www.w3.org/2000/svg" xmlns:xlink="http://www.w3.org/1999/xlink">
<g id="graph0" class="graph" transform="scale(1 1) rotate(0) translate(4 169.8)">
<title>dependencies</title>
<polygon fill="white" stroke="transparent" points="-4,4 -4,-169.8 594,-169.8 594,4 -4,4"/>
<text text-anchor="middle" x="295" y="-8.2" font-family="sans-serif" font-size="14.00">dependencies</text>
<g id="clust1" class="cluster">
<title>cluster_AppModule</title>
<polygon fill="none" stroke="black" stroke-dasharray="1,5" points="8,-32.8 8,-157.8 582,-157.8 582,-32.8 8,-32.8"/>
</g>
<g id="clust3" class="cluster">
<title>cluster_AppModule_imports</title>
<polygon fill="none" stroke="black" points="16,-40.8 16,-92.8 574,-92.8 574,-40.8 16,-40.8"/>
</g>
<!-- AuthenticationModule -->
<g id="node1" class="node">
<title>AuthenticationModule</title>
<polygon fill="#8dd3c7" stroke="black" points="566.25,-84.8 563.25,-88.8 542.25,-88.8 539.25,-84.8 423.75,-84.8 423.75,-48.8 566.25,-48.8 566.25,-84.8"/>
<text text-anchor="middle" x="495" y="-62.6" font-family="Times,serif" font-size="14.00">AuthenticationModule</text>
</g>
<!-- AppModule -->
<g id="node5" class="node">
<title>AppModule</title>
<polygon fill="#8dd3c7" stroke="black" points="327.66,-149.8 324.66,-153.8 303.66,-153.8 300.66,-149.8 244.34,-149.8 244.34,-113.8 327.66,-113.8 327.66,-149.8"/>
<text text-anchor="middle" x="286" y="-127.6" font-family="Times,serif" font-size="14.00">AppModule</text>
</g>
<!-- AuthenticationModule&#45;&gt;AppModule -->
<g id="edge1" class="edge">
<title>AuthenticationModule&#45;&gt;AppModule</title>
<path fill="none" stroke="black" d="M495,-84.91C495,-104.14 495,-131.8 495,-131.8 495,-131.8 337.79,-131.8 337.79,-131.8"/>
<polygon fill="black" stroke="black" points="337.79,-128.3 327.79,-131.8 337.79,-135.3 337.79,-128.3"/>
</g>
<!-- EmailModule -->
<g id="node2" class="node">
<title>EmailModule</title>
<polygon fill="#8dd3c7" stroke="black" points="405.49,-84.8 402.49,-88.8 381.49,-88.8 378.49,-84.8 312.51,-84.8 312.51,-48.8 405.49,-48.8 405.49,-84.8"/>
<text text-anchor="middle" x="359" y="-62.6" font-family="Times,serif" font-size="14.00">EmailModule</text>
</g>
<!-- EmailModule&#45;&gt;AppModule -->
<g id="edge2" class="edge">
<title>EmailModule&#45;&gt;AppModule</title>
<path fill="none" stroke="black" d="M320.17,-84.91C320.17,-84.91 320.17,-103.79 320.17,-103.79"/>
<polygon fill="black" stroke="black" points="316.67,-103.79 320.17,-113.79 323.67,-103.79 316.67,-103.79"/>
</g>
<!-- EmailVerificationModule -->
<g id="node3" class="node">
<title>EmailVerificationModule</title>
<polygon fill="#8dd3c7" stroke="black" points="294.12,-84.8 291.12,-88.8 270.12,-88.8 267.12,-84.8 133.88,-84.8 133.88,-48.8 294.12,-48.8 294.12,-84.8"/>
<text text-anchor="middle" x="214" y="-62.6" font-family="Times,serif" font-size="14.00">EmailVerificationModule</text>
</g>
<!-- EmailVerificationModule&#45;&gt;AppModule -->
<g id="edge3" class="edge">
<title>EmailVerificationModule&#45;&gt;AppModule</title>
<path fill="none" stroke="black" d="M269.24,-84.91C269.24,-84.91 269.24,-103.79 269.24,-103.79"/>
<polygon fill="black" stroke="black" points="265.74,-103.79 269.24,-113.79 272.74,-103.79 265.74,-103.79"/>
</g>
<!-- UsersModule -->
<g id="node4" class="node">
<title>UsersModule</title>
<polygon fill="#8dd3c7" stroke="black" points="115.94,-84.8 112.94,-88.8 91.94,-88.8 88.94,-84.8 24.06,-84.8 24.06,-48.8 115.94,-48.8 115.94,-84.8"/>
<text text-anchor="middle" x="70" y="-62.6" font-family="Times,serif" font-size="14.00">UsersModule</text>
</g>
<!-- UsersModule&#45;&gt;AppModule -->
<g id="edge4" class="edge">
<title>UsersModule&#45;&gt;AppModule</title>
<path fill="none" stroke="black" d="M70,-84.91C70,-104.14 70,-131.8 70,-131.8 70,-131.8 234.1,-131.8 234.1,-131.8"/>
<polygon fill="black" stroke="black" points="234.1,-135.3 244.1,-131.8 234.1,-128.3 234.1,-135.3"/>
</g>
</g>
</svg>
