<?xml version="1.0" encoding="UTF-8" standalone="no"?>
<!DOCTYPE svg PUBLIC "-//W3C//DTD SVG 1.1//EN"
 "http://www.w3.org/Graphics/SVG/1.1/DTD/svg11.dtd">
<!-- Generated by graphviz version 3.0.0 (20220226.1711)
 -->
<!-- Title: dependencies Pages: 1 -->
<svg width="352pt" height="247pt"
 viewBox="0.00 0.00 352.00 246.80" xmlns="http://www.w3.org/2000/svg" xmlns:xlink="http://www.w3.org/1999/xlink">
<g id="graph0" class="graph" transform="scale(1 1) rotate(0) translate(4 242.8)">
<title>dependencies</title>
<polygon fill="white" stroke="transparent" points="-4,4 -4,-242.8 348,-242.8 348,4 -4,4"/>
<text text-anchor="middle" x="172" y="-8.2" font-family="sans-serif" font-size="14.00">dependencies</text>
<g id="clust1" class="cluster">
<title>cluster_UsersModule</title>
<polygon fill="none" stroke="black" stroke-dasharray="1,5" points="8,-32.8 8,-230.8 336,-230.8 336,-32.8 8,-32.8"/>
</g>
<g id="clust4" class="cluster">
<title>cluster_UsersModule_exports</title>
<polygon fill="none" stroke="black" points="123,-170.8 123,-222.8 233,-222.8 233,-170.8 123,-170.8"/>
</g>
<g id="clust6" class="cluster">
<title>cluster_UsersModule_providers</title>
<polygon fill="none" stroke="black" points="188,-40.8 188,-92.8 328,-92.8 328,-40.8 188,-40.8"/>
</g>
<g id="clust3" class="cluster">
<title>cluster_UsersModule_imports</title>
<polygon fill="none" stroke="black" points="16,-40.8 16,-92.8 180,-92.8 180,-40.8 16,-40.8"/>
</g>
<!-- StripePaymentsModule -->
<g id="node1" class="node">
<title>StripePaymentsModule</title>
<polygon fill="#8dd3c7" stroke="black" points="171.94,-84.8 168.94,-88.8 147.94,-88.8 144.94,-84.8 24.06,-84.8 24.06,-48.8 171.94,-48.8 171.94,-84.8"/>
<text text-anchor="middle" x="98" y="-62.6" font-family="Times,serif" font-size="14.00">StripePaymentsModule</text>
</g>
<!-- UsersModule -->
<g id="node2" class="node">
<title>UsersModule</title>
<polygon fill="#8dd3c7" stroke="black" points="223.94,-149.8 220.94,-153.8 199.94,-153.8 196.94,-149.8 132.06,-149.8 132.06,-113.8 223.94,-113.8 223.94,-149.8"/>
<text text-anchor="middle" x="178" y="-127.6" font-family="Times,serif" font-size="14.00">UsersModule</text>
</g>
<!-- StripePaymentsModule&#45;&gt;UsersModule -->
<g id="edge1" class="edge">
<title>StripePaymentsModule&#45;&gt;UsersModule</title>
<path fill="none" stroke="black" d="M152,-84.91C152,-84.91 152,-103.79 152,-103.79"/>
<polygon fill="black" stroke="black" points="148.5,-103.79 152,-113.79 155.5,-103.79 148.5,-103.79"/>
</g>
<!-- UsersService  -->
<g id="node3" class="node">
<title>UsersService </title>
<polygon fill="#fb8072" stroke="black" points="224.86,-214.8 131.14,-214.8 131.14,-178.8 224.86,-178.8 224.86,-214.8"/>
<text text-anchor="middle" x="178" y="-192.6" font-family="Times,serif" font-size="14.00">UsersService </text>
</g>
<!-- UsersModule&#45;&gt;UsersService  -->
<g id="edge2" class="edge">
<title>UsersModule&#45;&gt;UsersService </title>
<path fill="none" stroke="black" stroke-dasharray="5,2" d="M178,-149.91C178,-149.91 178,-168.79 178,-168.79"/>
<polygon fill="black" stroke="black" points="174.5,-168.79 178,-178.79 181.5,-168.79 174.5,-168.79"/>
</g>
<!-- UsersService -->
<g id="node4" class="node">
<title>UsersService</title>
<ellipse fill="#fdb462" stroke="black" cx="258" cy="-66.8" rx="61.97" ry="18"/>
<text text-anchor="middle" x="258" y="-62.6" font-family="Times,serif" font-size="14.00">UsersService</text>
</g>
<!-- UsersService&#45;&gt;UsersModule -->
<g id="edge3" class="edge">
<title>UsersService&#45;&gt;UsersModule</title>
<path fill="none" stroke="black" d="M209.87,-78.42C209.87,-78.42 209.87,-103.65 209.87,-103.65"/>
<polygon fill="black" stroke="black" points="206.37,-103.65 209.87,-113.65 213.37,-103.65 206.37,-103.65"/>
</g>
</g>
</svg>
