<?xml version="1.0" encoding="UTF-8" standalone="no"?>
<!DOCTYPE svg PUBLIC "-//W3C//DTD SVG 1.1//EN"
 "http://www.w3.org/Graphics/SVG/1.1/DTD/svg11.dtd">
<!-- Generated by graphviz version 3.0.0 (20220226.1711)
 -->
<!-- Title: dependencies Pages: 1 -->
<svg width="875pt" height="174pt"
 viewBox="0.00 0.00 875.00 173.80" xmlns="http://www.w3.org/2000/svg" xmlns:xlink="http://www.w3.org/1999/xlink">
<g id="graph0" class="graph" transform="scale(1 1) rotate(0) translate(4 169.8)">
<title>dependencies</title>
<polygon fill="white" stroke="transparent" points="-4,4 -4,-169.8 871,-169.8 871,4 -4,4"/>
<text text-anchor="middle" x="433.5" y="-8.2" font-family="sans-serif" font-size="14.00">dependencies</text>
<g id="clust1" class="cluster">
<title>cluster_AppModule</title>
<polygon fill="none" stroke="black" stroke-dasharray="1,5" points="8,-32.8 8,-157.8 859,-157.8 859,-32.8 8,-32.8"/>
</g>
<g id="clust3" class="cluster">
<title>cluster_AppModule_imports</title>
<polygon fill="none" stroke="black" points="16,-40.8 16,-92.8 851,-92.8 851,-40.8 16,-40.8"/>
</g>
<!-- AuthenticationModule -->
<g id="node1" class="node">
<title>AuthenticationModule</title>
<polygon fill="#8dd3c7" stroke="black" points="843.25,-84.8 840.25,-88.8 819.25,-88.8 816.25,-84.8 700.75,-84.8 700.75,-48.8 843.25,-48.8 843.25,-84.8"/>
<text text-anchor="middle" x="772" y="-62.6" font-family="Times,serif" font-size="14.00">AuthenticationModule</text>
</g>
<!-- AppModule -->
<g id="node7" class="node">
<title>AppModule</title>
<polygon fill="#8dd3c7" stroke="black" points="459.66,-149.8 456.66,-153.8 435.66,-153.8 432.66,-149.8 376.34,-149.8 376.34,-113.8 459.66,-113.8 459.66,-149.8"/>
<text text-anchor="middle" x="418" y="-127.6" font-family="Times,serif" font-size="14.00">AppModule</text>
</g>
<!-- AuthenticationModule&#45;&gt;AppModule -->
<g id="edge1" class="edge">
<title>AuthenticationModule&#45;&gt;AppModule</title>
<path fill="none" stroke="black" d="M772,-85.08C772,-106.12 772,-137.8 772,-137.8 772,-137.8 470,-137.8 470,-137.8"/>
<polygon fill="black" stroke="black" points="470,-134.3 460,-137.8 470,-141.3 470,-134.3"/>
</g>
<!-- EmailModule -->
<g id="node2" class="node">
<title>EmailModule</title>
<polygon fill="#8dd3c7" stroke="black" points="682.49,-84.8 679.49,-88.8 658.49,-88.8 655.49,-84.8 589.51,-84.8 589.51,-48.8 682.49,-48.8 682.49,-84.8"/>
<text text-anchor="middle" x="636" y="-62.6" font-family="Times,serif" font-size="14.00">EmailModule</text>
</g>
<!-- EmailModule&#45;&gt;AppModule -->
<g id="edge2" class="edge">
<title>EmailModule&#45;&gt;AppModule</title>
<path fill="none" stroke="black" d="M636,-84.82C636,-102.17 636,-125.8 636,-125.8 636,-125.8 469.77,-125.8 469.77,-125.8"/>
<polygon fill="black" stroke="black" points="469.77,-122.3 459.77,-125.8 469.77,-129.3 469.77,-122.3"/>
</g>
<!-- EmailVerificationModule -->
<g id="node3" class="node">
<title>EmailVerificationModule</title>
<polygon fill="#8dd3c7" stroke="black" points="571.12,-84.8 568.12,-88.8 547.12,-88.8 544.12,-84.8 410.88,-84.8 410.88,-48.8 571.12,-48.8 571.12,-84.8"/>
<text text-anchor="middle" x="491" y="-62.6" font-family="Times,serif" font-size="14.00">EmailVerificationModule</text>
</g>
<!-- EmailVerificationModule&#45;&gt;AppModule -->
<g id="edge3" class="edge">
<title>EmailVerificationModule&#45;&gt;AppModule</title>
<path fill="none" stroke="black" d="M435.26,-84.91C435.26,-84.91 435.26,-103.79 435.26,-103.79"/>
<polygon fill="black" stroke="black" points="431.76,-103.79 435.26,-113.79 438.76,-103.79 431.76,-103.79"/>
</g>
<!-- ShopsModule -->
<g id="node4" class="node">
<title>ShopsModule</title>
<polygon fill="#8dd3c7" stroke="black" points="392.79,-84.8 389.79,-88.8 368.79,-88.8 365.79,-84.8 299.21,-84.8 299.21,-48.8 392.79,-48.8 392.79,-84.8"/>
<text text-anchor="middle" x="346" y="-62.6" font-family="Times,serif" font-size="14.00">ShopsModule</text>
</g>
<!-- ShopsModule&#45;&gt;AppModule -->
<g id="edge4" class="edge">
<title>ShopsModule&#45;&gt;AppModule</title>
<path fill="none" stroke="black" d="M384.53,-84.91C384.53,-84.91 384.53,-103.79 384.53,-103.79"/>
<polygon fill="black" stroke="black" points="381.03,-103.79 384.53,-113.79 388.03,-103.79 381.03,-103.79"/>
</g>
<!-- StripePaymentsModule -->
<g id="node5" class="node">
<title>StripePaymentsModule</title>
<polygon fill="#8dd3c7" stroke="black" points="280.94,-84.8 277.94,-88.8 256.94,-88.8 253.94,-84.8 133.06,-84.8 133.06,-48.8 280.94,-48.8 280.94,-84.8"/>
<text text-anchor="middle" x="207" y="-62.6" font-family="Times,serif" font-size="14.00">StripePaymentsModule</text>
</g>
<!-- StripePaymentsModule&#45;&gt;AppModule -->
<g id="edge5" class="edge">
<title>StripePaymentsModule&#45;&gt;AppModule</title>
<path fill="none" stroke="black" d="M207,-84.82C207,-102.17 207,-125.8 207,-125.8 207,-125.8 366.31,-125.8 366.31,-125.8"/>
<polygon fill="black" stroke="black" points="366.31,-129.3 376.31,-125.8 366.31,-122.3 366.31,-129.3"/>
</g>
<!-- UsersModule -->
<g id="node6" class="node">
<title>UsersModule</title>
<polygon fill="#8dd3c7" stroke="black" points="115.94,-84.8 112.94,-88.8 91.94,-88.8 88.94,-84.8 24.06,-84.8 24.06,-48.8 115.94,-48.8 115.94,-84.8"/>
<text text-anchor="middle" x="70" y="-62.6" font-family="Times,serif" font-size="14.00">UsersModule</text>
</g>
<!-- UsersModule&#45;&gt;AppModule -->
<g id="edge6" class="edge">
<title>UsersModule&#45;&gt;AppModule</title>
<path fill="none" stroke="black" d="M70,-85.08C70,-106.12 70,-137.8 70,-137.8 70,-137.8 366.02,-137.8 366.02,-137.8"/>
<polygon fill="black" stroke="black" points="366.02,-141.3 376.02,-137.8 366.02,-134.3 366.02,-141.3"/>
</g>
</g>
</svg>
