<svg xmlns="http://www.w3.org/2000/svg" xmlns:xlink="http://www.w3.org/1999/xlink" width="182pt" height="247pt" viewBox="0 0 182 246.8"><g id="graph0" class="graph" transform="scale(1 1) rotate(0) translate(4 242.8)"><title>dependencies</title><polygon fill="#fff" stroke="transparent" points="-4 4 -4 -242.8 178 -242.8 178 4 -4 4"/><text x="87" y="-8.2" font-family="sans-serif" font-size="14" text-anchor="middle">dependencies</text><g id="clust1" class="cluster"><title>cluster_EmailModule</title><polygon fill="none" stroke="#000" stroke-dasharray="1 5" points="8 -32.8 8 -230.8 166 -230.8 166 -32.8 8 -32.8"/></g><g id="clust6" class="cluster"><title>cluster_EmailModule_providers</title><polygon fill="none" stroke="#000" points="16 -40.8 16 -92.8 158 -92.8 158 -40.8 16 -40.8"/></g><g id="clust4" class="cluster"><title>cluster_EmailModule_exports</title><polygon fill="none" stroke="#000" points="32 -170.8 32 -222.8 142 -222.8 142 -170.8 32 -170.8"/></g><g id="node1" class="node"><title>EmailService</title><polygon fill="#fb8072" stroke="#000" points="134.41 -214.8 39.59 -214.8 39.59 -178.8 134.41 -178.8 134.41 -214.8"/><text x="87" y="-192.6" font-family="Times,serif" font-size="14" text-anchor="middle">EmailService</text></g><g id="node2" class="node"><title>EmailModule</title><polygon fill="#8dd3c7" stroke="#000" points="133.49 -149.8 130.49 -153.8 109.49 -153.8 106.49 -149.8 40.51 -149.8 40.51 -113.8 133.49 -113.8 133.49 -149.8"/><text x="87" y="-127.6" font-family="Times,serif" font-size="14" text-anchor="middle">EmailModule</text></g><g id="edge1" class="edge"><title>EmailModule-&gt;EmailService</title><path fill="none" stroke="#000" stroke-dasharray="5 2" d="M87,-149.91C87,-149.91 87,-168.79 87,-168.79"/><polygon fill="#000" stroke="#000" points="83.5 -168.79 87 -178.79 90.5 -168.79 83.5 -168.79"/></g><g id="node3" class="node"><title>EmailService</title><ellipse cx="87" cy="-66.8" fill="#fdb462" stroke="#000" rx="63.11" ry="18"/><text x="87" y="-62.6" font-family="Times,serif" font-size="14" text-anchor="middle">EmailService</text></g><g id="edge2" class="edge"><title>EmailService-&gt;EmailModule</title><path fill="none" stroke="#000" d="M87,-84.91C87,-84.91 87,-103.79 87,-103.79"/><polygon fill="#000" stroke="#000" points="83.5 -103.79 87 -113.79 90.5 -103.79 83.5 -103.79"/></g></g></svg>